<svg xmlns="http://www.w3.org/2000/svg" width="900" height="700" viewBox="55494.809550000005 29079.60705 2956.9999 8876.9989"><g transform="translate(0 67036.213) scale(1 -1)"><polygon points="56298.310,37153.107 56298.310,37553.106 58048.310,37553.106 58048.310,35453.106 57098.310,35453.106 57098.310,29483.107 55898.310,29483.107 55898.310,37153.107" fill="#f8fafc" stroke="#172033" stroke-width="12"/><line x1="58048.3095" y1="36773.106" x2="58048.3095" y2="36073.106" stroke="#e11d48" stroke-width="24"/><polygon points="57228.410,35536.184 57228.410,36756.184 55898.410,36756.184 55898.410,35536.184" fill="#ef8354" fill-opacity="0.72" stroke="#172033" stroke-width="8"><title>fridge</title></polygon><text x="56563.4095" y="36146.18392308" font-size="161.40" text-anchor="middle" dominant-baseline="middle" fill="#111827" transform="translate(0 72292.36784616) scale(1 -1)">fridge</text><polygon points="56298.310,37153.006 57298.310,37153.006 57298.310,37553.006 56298.310,37553.006" fill="#2d9cdb" fill-opacity="0.72" stroke="#172033" stroke-width="8"><title>shelf-1</title></polygon><text x="56798.3095" y="37353.006" font-size="161.40" text-anchor="middle" dominant-baseline="middle" fill="#111827" transform="translate(0 74706.012) scale(1 -1)">shelf-1</text><polygon points="56098.209,35053.106 57098.209,35053.106 57098.209,35453.106 56098.209,35453.106" fill="#2d9cdb" fill-opacity="0.72" stroke="#172033" stroke-width="8"><title>shelf-2</title></polygon><text x="56598.2095" y="35253.106" font-size="161.40" text-anchor="middle" dominant-baseline="middle" fill="#111827" transform="translate(0 70506.212) scale(1 -1)">shelf-2</text><polygon points="56098.209,34555.785 57098.209,34555.785 57098.209,34955.785 56098.209,34955.785" fill="#2d9cdb" fill-opacity="0.72" stroke="#172033" stroke-width="8"><title>shelf-3</title></polygon><text x="56598.2095" y="34755.78466071" font-size="161.40" text-anchor="middle" dominant-baseline="middle" fill="#111827" transform="translate(0 69511.56932142) scale(1 -1)">shelf-3</text><polygon points="56098.209,34058.463 57098.209,34058.463 57098.209,34458.463 56098.209,34458.463" fill="#2d9cdb" fill-opacity="0.72" stroke="#172033" stroke-width="8"><title>shelf-4</title></polygon><text x="56598.2095" y="34258.46332143" font-size="161.40" text-anchor="middle" dominant-baseline="middle" fill="#111827" transform="translate(0 68516.92664286) scale(1 -1)">shelf-4</text><polygon points="56098.209,33561.142 57098.209,33561.142 57098.209,33961.142 56098.209,33961.142" fill="#2d9cdb" fill-opacity="0.72" stroke="#172033" stroke-width="8"><title>shelf-5</title></polygon><text x="56598.2095" y="33761.14198214" font-size="161.40" text-anchor="middle" dominant-baseline="middle" fill="#111827" transform="translate(0 67522.28396428) scale(1 -1)">shelf-5</text><polygon points="57759.024,36953.006 57759.024,37553.006 57359.024,37553.006 57359.024,36953.006" fill="#6fcf97" fill-opacity="0.72" stroke="#172033" stroke-width="8"><title>overShelf-1</title></polygon><text x="57559.02378571" y="37253.006" font-size="161.40" text-anchor="middle" dominant-baseline="middle" fill="#111827" transform="translate(0 74506.012) scale(1 -1)">overShelf-1</text><polygon points="57448.209,35653.106 58048.209,35653.106 58048.209,36053.106 57448.209,36053.106" fill="#6fcf97" fill-opacity="0.72" stroke="#172033" stroke-width="8"><title>overShelf-2</title></polygon><text x="57748.2095" y="35853.106" font-size="161.40" text-anchor="middle" dominant-baseline="middle" fill="#111827" transform="translate(0 71706.212) scale(1 -1)">overShelf-2</text><polygon points="56498.209,33063.821 57098.209,33063.821 57098.209,33463.821 56498.209,33463.821" fill="#6fcf97" fill-opacity="0.72" stroke="#172033" stroke-width="8"><title>overShelf-3</title></polygon><text x="56798.2095" y="33263.82064286" font-size="161.40" text-anchor="middle" dominant-baseline="middle" fill="#111827" transform="translate(0 66527.64128572) scale(1 -1)">overShelf-3</text></g><text x="55595.684537500005" y="29402.40701" font-size="221.92" fill="#111827">FEASIBLE</text></svg>